<?xml version="1.0" encoding="utf-8" standalone="no"?>
<!DOCTYPE svg PUBLIC "-//W3C//DTD SVG 1.1//EN"
  "http://www.w3.org/Graphics/SVG/1.1/DTD/svg11.dtd">
<svg xmlns:xlink="http://www.w3.org/1999/xlink" width="259.2pt" height="216pt" viewBox="0 0 259.2 216" xmlns="http://www.w3.org/2000/svg" version="1.1">
 <metadata>
  <rdf:RDF xmlns:dc="http://purl.org/dc/elements/1.1/" xmlns:cc="http://creativecommons.org/ns#" xmlns:rdf="http://www.w3.org/1999/02/22-rdf-syntax-ns#">
   <cc:Work>
    <dc:type rdf:resource="http://purl.org/dc/dcmitype/StillImage"/>
    <dc:date>2026-10-07T22:18:41.801066</dc:date>
    <dc:format>image/svg+xml</dc:format>
    <dc:creator>
     <cc:Agent>
      <dc:title>Matplotlib v3.10.9, https://matplotlib.org/</dc:title>
     </cc:Agent>
    </dc:creator>
   </cc:Work>
  </rdf:RDF>
 </metadata>
 <defs>
  <style type="text/css">*{stroke-linejoin: round; stroke-linecap: butt}</style>
 </defs>
 <g id="figure_1">
  <g id="patch_1">
   <path d="M 0 216 
L 259.2 216 
L 259.2 0 
L 0 0 
z
" style="fill: #ffffff"/>
  </g>
  <g id="axes_1">
   <g id="patch_2">
    <path d="M 42.95 177.1 
L 224.3268 177.1 
L 224.3268 12.78 
L 42.95 12.78 
z
" style="fill: #ffffff"/>
   </g>
   <g id="matplotlib.axis_1">
    <g id="xtick_1">
     <g id="line2d_1">
      <path d="M 42.95 177.1 
L 42.95 12.78 
" clip-path="url(#pf78c911bcc)" style="fill: none; stroke: #ddd5c4; stroke-width: 0.6; stroke-linecap: square"/>
     </g>
     <g id="line2d_2">
      <defs>
       <path id="m68825433fa" d="M 0 0 
L 0 3.5 
" style="stroke: #827c6f; stroke-width: 0.8"/>
      </defs>
      <g>
       <use xlink:href="#m68825433fa" x="42.95" y="177.1" style="fill: #827c6f; stroke: #827c6f; stroke-width: 0.8"/>
      </g>
     </g>
     <g id="text_1">
      <text style="font-size: 8.5px; font-family: 'DejaVu Sans'; text-anchor: middle; fill: #827c6f" x="42.95" y="190.558672" transform="rotate(-0 42.95 190.558672)">0</text>
     </g>
    </g>
    <g id="xtick_2">
     <g id="line2d_3">
      <path d="M 88.2942 177.1 
L 88.2942 12.78 
" clip-path="url(#pf78c911bcc)" style="fill: none; stroke: #ddd5c4; stroke-width: 0.6; stroke-linecap: square"/>
     </g>
     <g id="line2d_4">
      <g>
       <use xlink:href="#m68825433fa" x="88.2942" y="177.1" style="fill: #827c6f; stroke: #827c6f; stroke-width: 0.8"/>
      </g>
     </g>
     <g id="text_2">
      <text style="font-size: 8.5px; font-family: 'DejaVu Sans'; text-anchor: middle; fill: #827c6f" x="88.2942" y="190.558672" transform="rotate(-0 88.2942 190.558672)">5</text>
     </g>
    </g>
    <g id="xtick_3">
     <g id="line2d_5">
      <path d="M 133.6384 177.1 
L 133.6384 12.78 
" clip-path="url(#pf78c911bcc)" style="fill: none; stroke: #ddd5c4; stroke-width: 0.6; stroke-linecap: square"/>
     </g>
     <g id="line2d_6">
      <g>
       <use xlink:href="#m68825433fa" x="133.6384" y="177.1" style="fill: #827c6f; stroke: #827c6f; stroke-width: 0.8"/>
      </g>
     </g>
     <g id="text_3">
      <text style="font-size: 8.5px; font-family: 'DejaVu Sans'; text-anchor: middle; fill: #827c6f" x="133.6384" y="190.558672" transform="rotate(-0 133.6384 190.558672)">10</text>
     </g>
    </g>
    <g id="xtick_4">
     <g id="line2d_7">
      <path d="M 178.9826 177.1 
L 178.9826 12.78 
" clip-path="url(#pf78c911bcc)" style="fill: none; stroke: #ddd5c4; stroke-width: 0.6; stroke-linecap: square"/>
     </g>
     <g id="line2d_8">
      <g>
       <use xlink:href="#m68825433fa" x="178.9826" y="177.1" style="fill: #827c6f; stroke: #827c6f; stroke-width: 0.8"/>
      </g>
     </g>
     <g id="text_4">
      <text style="font-size: 8.5px; font-family: 'DejaVu Sans'; text-anchor: middle; fill: #827c6f" x="178.9826" y="190.558672" transform="rotate(-0 178.9826 190.558672)">15</text>
     </g>
    </g>
    <g id="xtick_5">
     <g id="line2d_9">
      <path d="M 224.3268 177.1 
L 224.3268 12.78 
" clip-path="url(#pf78c911bcc)" style="fill: none; stroke: #ddd5c4; stroke-width: 0.6; stroke-linecap: square"/>
     </g>
     <g id="line2d_10">
      <g>
       <use xlink:href="#m68825433fa" x="224.3268" y="177.1" style="fill: #827c6f; stroke: #827c6f; stroke-width: 0.8"/>
      </g>
     </g>
     <g id="text_5">
      <text style="font-size: 8.5px; font-family: 'DejaVu Sans'; text-anchor: middle; fill: #827c6f" x="224.3268" y="190.558672" transform="rotate(-0 224.3268 190.558672)">20</text>
     </g>
    </g>
    <g id="text_6">
     <text style="font-size: 8.5px; font-family: 'DejaVu Sans'; text-anchor: middle; fill: #4f4a40" x="133.6384" y="202.785078" transform="rotate(-0 133.6384 202.785078)">Years of honest paper trading</text>
    </g>
   </g>
   <g id="matplotlib.axis_2">
    <g id="ytick_1">
     <g id="line2d_11">
      <path d="M 42.95 177.1 
L 224.3268 177.1 
" clip-path="url(#pf78c911bcc)" style="fill: none; stroke: #ddd5c4; stroke-width: 0.6; stroke-linecap: square"/>
     </g>
     <g id="line2d_12">
      <defs>
       <path id="mf330ae0e7f" d="M 0 0 
L -3.5 0 
" style="stroke: #827c6f; stroke-width: 0.8"/>
      </defs>
      <g>
       <use xlink:href="#mf330ae0e7f" x="42.95" y="177.1" style="fill: #827c6f; stroke: #827c6f; stroke-width: 0.8"/>
      </g>
     </g>
     <g id="text_7">
      <text style="font-size: 8.5px; font-family: 'DejaVu Sans'; text-anchor: end; fill: #827c6f" x="35.95" y="180.329336" transform="rotate(-0 35.95 180.329336)">0.0</text>
     </g>
    </g>
    <g id="ytick_2">
     <g id="line2d_13">
      <path d="M 42.95 144.236 
L 224.3268 144.236 
" clip-path="url(#pf78c911bcc)" style="fill: none; stroke: #ddd5c4; stroke-width: 0.6; stroke-linecap: square"/>
     </g>
     <g id="line2d_14">
      <g>
       <use xlink:href="#mf330ae0e7f" x="42.95" y="144.236" style="fill: #827c6f; stroke: #827c6f; stroke-width: 0.8"/>
      </g>
     </g>
     <g id="text_8">
      <text style="font-size: 8.5px; font-family: 'DejaVu Sans'; text-anchor: end; fill: #827c6f" x="35.95" y="147.465336" transform="rotate(-0 35.95 147.465336)">0.2</text>
     </g>
    </g>
    <g id="ytick_3">
     <g id="line2d_15">
      <path d="M 42.95 111.372 
L 224.3268 111.372 
" clip-path="url(#pf78c911bcc)" style="fill: none; stroke: #ddd5c4; stroke-width: 0.6; stroke-linecap: square"/>
     </g>
     <g id="line2d_16">
      <g>
       <use xlink:href="#mf330ae0e7f" x="42.95" y="111.372" style="fill: #827c6f; stroke: #827c6f; stroke-width: 0.8"/>
      </g>
     </g>
     <g id="text_9">
      <text style="font-size: 8.5px; font-family: 'DejaVu Sans'; text-anchor: end; fill: #827c6f" x="35.95" y="114.601336" transform="rotate(-0 35.95 114.601336)">0.4</text>
     </g>
    </g>
    <g id="ytick_4">
     <g id="line2d_17">
      <path d="M 42.95 78.508 
L 224.3268 78.508 
" clip-path="url(#pf78c911bcc)" style="fill: none; stroke: #ddd5c4; stroke-width: 0.6; stroke-linecap: square"/>
     </g>
     <g id="line2d_18">
      <g>
       <use xlink:href="#mf330ae0e7f" x="42.95" y="78.508" style="fill: #827c6f; stroke: #827c6f; stroke-width: 0.8"/>
      </g>
     </g>
     <g id="text_10">
      <text style="font-size: 8.5px; font-family: 'DejaVu Sans'; text-anchor: end; fill: #827c6f" x="35.95" y="81.737336" transform="rotate(-0 35.95 81.737336)">0.6</text>
     </g>
    </g>
    <g id="ytick_5">
     <g id="line2d_19">
      <path d="M 42.95 45.644 
L 224.3268 45.644 
" clip-path="url(#pf78c911bcc)" style="fill: none; stroke: #ddd5c4; stroke-width: 0.6; stroke-linecap: square"/>
     </g>
     <g id="line2d_20">
      <g>
       <use xlink:href="#mf330ae0e7f" x="42.95" y="45.644" style="fill: #827c6f; stroke: #827c6f; stroke-width: 0.8"/>
      </g>
     </g>
     <g id="text_11">
      <text style="font-size: 8.5px; font-family: 'DejaVu Sans'; text-anchor: end; fill: #827c6f" x="35.95" y="48.873336" transform="rotate(-0 35.95 48.873336)">0.8</text>
     </g>
    </g>
    <g id="ytick_6">
     <g id="line2d_21">
      <path d="M 42.95 12.78 
L 224.3268 12.78 
" clip-path="url(#pf78c911bcc)" style="fill: none; stroke: #ddd5c4; stroke-width: 0.6; stroke-linecap: square"/>
     </g>
     <g id="line2d_22">
      <g>
       <use xlink:href="#mf330ae0e7f" x="42.95" y="12.78" style="fill: #827c6f; stroke: #827c6f; stroke-width: 0.8"/>
      </g>
     </g>
     <g id="text_12">
      <text style="font-size: 8.5px; font-family: 'DejaVu Sans'; text-anchor: end; fill: #827c6f" x="35.95" y="16.009336" transform="rotate(-0 35.95 16.009336)">1.0</text>
     </g>
    </g>
    <g id="text_13">
     <text style="font-size: 8.5px; font-family: 'DejaVu Sans'; text-anchor: middle; fill: #4f4a40" x="16.664609" y="94.94" transform="rotate(-90 16.664609 94.94)">P(genuine edge passes, t ≥ 1.645)</text>
    </g>
   </g>
   <g id="line2d_23">
    <path d="M 43.040688 167.046044 
L 43.49504 163.823827 
L 44.403742 159.574723 
L 45.766795 154.359842 
L 48.038551 146.672664 
L 51.219009 136.826444 
L 54.853818 126.355376 
L 58.488628 116.554209 
L 62.123437 107.376608 
L 65.758246 98.806822 
L 69.393055 90.834038 
L 73.027865 83.445096 
L 76.208323 77.445226 
L 79.388781 71.865062 
L 82.569239 66.688462 
L 85.749697 61.897725 
L 88.930155 57.47403 
L 92.110613 53.397849 
L 95.291071 49.649299 
L 98.47153 46.208447 
L 101.651988 43.055559 
L 105.286797 39.780092 
L 108.921606 36.82756 
L 112.556415 34.171197 
L 116.191225 31.785585 
L 119.826034 29.646757 
L 123.915194 27.507658 
L 128.004355 25.622855 
L 132.547866 23.793839 
L 137.091378 22.211271 
L 142.089241 20.718793 
L 147.087103 19.451595 
L 152.539317 18.288961 
L 158.445882 17.248058 
L 165.26115 16.280435 
L 172.985119 15.42671 
L 181.617791 14.709702 
L 191.613517 14.112734 
L 203.426647 13.635817 
L 218.420235 13.263963 
L 224.3268 13.165755 
L 224.3268 13.165755 
" clip-path="url(#pf78c911bcc)" style="fill: none; stroke: #827c6f; stroke-width: 1.1; stroke-linecap: square"/>
   </g>
   <g id="line2d_24">
    <path d="M 43.040688 167.628634 
L 43.49504 165.542374 
L 44.403742 162.938312 
L 45.766795 159.88262 
L 47.5842 156.361778 
L 50.310307 151.593361 
L 53.945116 145.711197 
L 58.488628 138.794172 
L 63.940842 130.929254 
L 69.393055 123.449437 
L 75.299621 115.740502 
L 80.751834 108.974188 
L 86.204048 102.537245 
L 91.656262 96.425462 
L 97.108476 90.634403 
L 102.56069 85.158626 
L 108.012904 79.991448 
L 113.465118 75.124963 
L 118.917332 70.550173 
L 124.369545 66.25717 
L 129.821759 62.235324 
L 135.273973 58.473466 
L 141.180538 54.678128 
L 147.087103 51.159439 
L 152.993668 47.902364 
L 158.900233 44.891938 
L 165.26115 41.908862 
L 171.622066 39.176732 
L 177.982982 36.678107 
L 184.798249 34.24108 
L 191.613517 32.033157 
L 198.883135 29.909551 
L 206.607105 27.891773 
L 214.785426 25.997299 
L 223.418098 24.239387 
L 224.3268 24.067653 
L 224.3268 24.067653 
" clip-path="url(#pf78c911bcc)" style="fill: none; stroke: #2a78d6; stroke-width: 2; stroke-linecap: square"/>
   </g>
   <g id="line2d_25">
    <path d="M 43.040688 168.002045 
L 43.49504 166.589427 
L 44.403742 164.896055 
L 45.766795 162.97973 
L 47.5842 160.838252 
L 50.310307 158.014218 
L 53.945116 154.604593 
L 58.942979 150.263662 
L 65.303895 145.070315 
L 72.573514 139.424939 
L 81.206186 133.012817 
L 90.293209 126.544922 
L 99.834583 120.033404 
L 109.375957 113.794198 
L 118.917332 107.820627 
L 128.458706 102.108988 
L 138.00008 96.656344 
L 147.541454 91.459543 
L 157.082829 86.514793 
L 166.624203 81.817516 
L 176.165577 77.362343 
L 185.706952 73.143172 
L 195.702677 68.968871 
L 205.698403 65.037825 
L 215.694128 61.341172 
L 224.3268 58.330151 
L 224.3268 58.330151 
" clip-path="url(#pf78c911bcc)" style="fill: none; stroke: #827c6f; stroke-width: 1.1; stroke-linecap: square"/>
   </g>
   <g id="line2d_26">
    <path d="M 42.95 45.644 
L 224.3268 45.644 
" clip-path="url(#pf78c911bcc)" style="fill: none; stroke: #4f4a40; stroke-width: 0.6; stroke-linecap: square"/>
   </g>
   <g id="line2d_27">
    <path d="M 157.378074 177.1 
L 157.378074 12.78 
" clip-path="url(#pf78c911bcc)" style="fill: none; stroke: #2a78d6; stroke-width: 0.6; stroke-linecap: square"/>
   </g>
   <g id="patch_3">
    <path d="M 42.95 177.1 
L 42.95 12.78 
" style="fill: none; stroke: #ddd5c4; stroke-width: 0.8; stroke-linejoin: miter; stroke-linecap: square"/>
   </g>
   <g id="patch_4">
    <path d="M 42.95 177.1 
L 224.3268 177.1 
" style="fill: none; stroke: #ddd5c4; stroke-width: 0.8; stroke-linejoin: miter; stroke-linecap: square"/>
   </g>
   <g id="text_14">
    <text style="font-size: 7px; font-family: 'DejaVu Sans'; text-anchor: start; fill: #17140e" x="227.047452" y="15.097318" transform="rotate(-0 227.047452 15.097318)">SR 1.0</text>
   </g>
   <g id="text_15">
    <text style="font-size: 7px; font-family: 'DejaVu Sans'; text-anchor: start; fill: #17140e" x="227.047452" y="25.999215" transform="rotate(-0 227.047452 25.999215)">SR 0.7</text>
   </g>
   <g id="text_16">
    <text style="font-size: 7px; font-family: 'DejaVu Sans'; text-anchor: start; fill: #17140e" x="227.047452" y="60.261714" transform="rotate(-0 227.047452 60.261714)">SR 0.5</text>
   </g>
   <g id="text_17">
    <text style="font-size: 7px; font-family: 'DejaVu Sans'; text-anchor: start; fill: #17140e" x="160.098726" y="168.884" transform="rotate(-0 160.098726 168.884)">12.6 y</text>
   </g>
   <g id="PathCollection_1">
    <defs>
     <path id="m9897a1b478" d="M 0 2.54951 
C 0.676138 2.54951 1.324674 2.280877 1.802776 1.802776 
C 2.280877 1.324674 2.54951 0.676138 2.54951 0 
C 2.54951 -0.676138 2.280877 -1.324674 1.802776 -1.802776 
C 1.324674 -2.280877 0.676138 -2.54951 0 -2.54951 
C -0.676138 -2.54951 -1.324674 -2.280877 -1.802776 -1.802776 
C -2.280877 -1.324674 -2.54951 -0.676138 -2.54951 0 
C -2.54951 0.676138 -2.280877 1.324674 -1.802776 1.802776 
C -1.324674 2.280877 -0.676138 2.54951 0 2.54951 
z
" style="stroke: #ffffff"/>
    </defs>
    <g clip-path="url(#pf78c911bcc)">
     <use xlink:href="#m9897a1b478" x="52.01884" y="142.045067" style="fill: #eb6834; stroke: #ffffff"/>
     <use xlink:href="#m9897a1b478" x="70.15652" y="114.110667" style="fill: #eb6834; stroke: #ffffff"/>
    </g>
   </g>
   <g id="legend_1">
    <g id="PathCollection_2">
     <g>
      <use xlink:href="#m9897a1b478" x="119.062112" y="167.506719" style="fill: #eb6834; stroke: #ffffff"/>
     </g>
    </g>
    <g id="text_18">
     <text style="font-size: 7px; font-family: 'DejaVu Sans'; text-anchor: start" x="131.662112" y="169.344219" transform="rotate(-0 131.662112 169.344219)">measured (true SR 0.72)</text>
    </g>
   </g>
  </g>
 </g>
 <defs>
  <clipPath id="pf78c911bcc">
   <rect x="42.95" y="12.78" width="181.3768" height="164.32"/>
  </clipPath>
 </defs>
</svg>
